<svg width="73" height="86" viewBox="0 0 73 86" fill="none" xmlns="http://www.w3.org/2000/svg">
<path d="M61.535 0H10.715C4.7853 0 0 4.8203 0 10.715V75C0 80.9297 4.7852 85.715 10.715 85.715H50.82C51.7497 85.715 52.6755 85.3595 53.32 84.6798L71.175 66.8248C71.8547 66.1412 72.2492 65.2506 72.2492 64.2857V10.7117C72.2492 4.8211 67.4289 0.000699997 61.5342 0.000699997L61.535 0ZM36.105 19.641C40.0698 19.641 43.2495 22.8558 43.2495 26.7855C43.2495 30.7503 40.0698 33.93 36.105 33.93C32.1753 33.93 28.9605 30.7503 28.9605 26.7855C28.9644 22.8558 32.1793 19.641 36.105 19.641ZM43.2534 69.645H17.8434C15.8707 69.645 14.2731 68.0473 14.2731 66.0747C14.2731 64.1021 15.8708 62.5044 17.8434 62.5044H43.2534C45.2261 62.5044 46.8237 64.1021 46.8237 66.0747C46.8237 68.0473 45.226 69.645 43.2534 69.645ZM54.3784 53.575H17.8434C15.8707 53.575 14.2731 51.9773 14.2731 50.0047C14.2731 48.032 15.8708 46.4344 17.8434 46.4344H54.3784C56.3511 46.4344 57.9487 48.0321 57.9487 50.0047C57.9487 51.9735 56.351 53.575 54.3784 53.575Z" fill="black"/>
</svg>
